<mxfile host="app.diagrams.net" modified="2023-07-06T11:22:52.577Z" agent="Mozilla/5.0 (Windows NT 10.0; Win64; x64) AppleWebKit/537.36 (KHTML, like Gecko) Chrome/114.0.0.0 Safari/537.36" etag="twalpCi7zA52I16MzDwd" version="21.5.0" type="device">
  <diagram name="Page-1" id="E-qkTiCWWsBuOp1j_GIr">
    <mxGraphModel dx="3149" dy="1010" grid="1" gridSize="10" guides="1" tooltips="1" connect="1" arrows="1" fold="1" page="1" pageScale="1" pageWidth="1100" pageHeight="850" math="0" shadow="0">
      <root>
        <mxCell id="0" />
        <mxCell id="1" parent="0" />
        <mxCell id="fXTxfhUgCltT9-GLnEke-20" value="" style="edgeStyle=none;shape=connector;rounded=0;orthogonalLoop=1;jettySize=auto;html=1;labelBackgroundColor=default;strokeColor=default;fontFamily=Helvetica;fontSize=11;fontColor=default;endArrow=none;endFill=0;" parent="1" source="fXTxfhUgCltT9-GLnEke-1" target="fXTxfhUgCltT9-GLnEke-10" edge="1">
          <mxGeometry relative="1" as="geometry" />
        </mxCell>
        <mxCell id="fXTxfhUgCltT9-GLnEke-43" value="M" style="edgeStyle=none;shape=connector;rounded=0;orthogonalLoop=1;jettySize=auto;html=1;entryX=0.5;entryY=0;entryDx=0;entryDy=0;labelBackgroundColor=default;strokeColor=default;fontFamily=Helvetica;fontSize=11;fontColor=default;endArrow=none;endFill=0;" parent="1" source="fXTxfhUgCltT9-GLnEke-1" target="fXTxfhUgCltT9-GLnEke-42" edge="1">
          <mxGeometry relative="1" as="geometry">
            <mxPoint x="685" y="215" as="targetPoint" />
          </mxGeometry>
        </mxCell>
        <mxCell id="fXTxfhUgCltT9-GLnEke-112" style="edgeStyle=none;shape=connector;rounded=0;orthogonalLoop=1;jettySize=auto;html=1;entryX=0.5;entryY=0;entryDx=0;entryDy=0;labelBackgroundColor=default;strokeColor=default;fontFamily=Helvetica;fontSize=11;fontColor=default;endArrow=none;endFill=0;" parent="1" source="fXTxfhUgCltT9-GLnEke-1" target="fXTxfhUgCltT9-GLnEke-111" edge="1">
          <mxGeometry relative="1" as="geometry" />
        </mxCell>
        <mxCell id="fXTxfhUgCltT9-GLnEke-1" value="Doctors&amp;nbsp;&lt;br&gt;" style="rounded=0;whiteSpace=wrap;html=1;" parent="1" vertex="1">
          <mxGeometry x="625" y="130" width="120" height="60" as="geometry" />
        </mxCell>
        <mxCell id="fXTxfhUgCltT9-GLnEke-108" style="edgeStyle=none;shape=connector;rounded=0;orthogonalLoop=1;jettySize=auto;html=1;entryX=0;entryY=1;entryDx=0;entryDy=0;labelBackgroundColor=default;strokeColor=default;fontFamily=Helvetica;fontSize=11;fontColor=default;endArrow=none;endFill=0;exitX=1;exitY=0;exitDx=0;exitDy=0;" parent="1" source="fXTxfhUgCltT9-GLnEke-2" target="fXTxfhUgCltT9-GLnEke-107" edge="1">
          <mxGeometry relative="1" as="geometry" />
        </mxCell>
        <mxCell id="fXTxfhUgCltT9-GLnEke-114" style="edgeStyle=none;shape=connector;rounded=0;orthogonalLoop=1;jettySize=auto;html=1;exitX=0.75;exitY=0;exitDx=0;exitDy=0;labelBackgroundColor=default;strokeColor=default;fontFamily=Helvetica;fontSize=11;fontColor=default;endArrow=none;endFill=0;" parent="1" source="fXTxfhUgCltT9-GLnEke-2" edge="1">
          <mxGeometry relative="1" as="geometry">
            <mxPoint x="199.96551724137953" y="664.7241379310344" as="targetPoint" />
          </mxGeometry>
        </mxCell>
        <mxCell id="fXTxfhUgCltT9-GLnEke-123" style="edgeStyle=none;shape=connector;rounded=0;orthogonalLoop=1;jettySize=auto;html=1;labelBackgroundColor=default;strokeColor=default;fontFamily=Helvetica;fontSize=11;fontColor=default;endArrow=none;endFill=0;" parent="1" source="fXTxfhUgCltT9-GLnEke-2" target="fXTxfhUgCltT9-GLnEke-121" edge="1">
          <mxGeometry relative="1" as="geometry" />
        </mxCell>
        <mxCell id="fXTxfhUgCltT9-GLnEke-2" value="Appointments&amp;nbsp;" style="rounded=0;whiteSpace=wrap;html=1;" parent="1" vertex="1">
          <mxGeometry x="110" y="665" width="120" height="60" as="geometry" />
        </mxCell>
        <mxCell id="fXTxfhUgCltT9-GLnEke-122" style="edgeStyle=none;shape=connector;rounded=0;orthogonalLoop=1;jettySize=auto;html=1;entryX=0.5;entryY=0;entryDx=0;entryDy=0;labelBackgroundColor=default;strokeColor=default;fontFamily=Helvetica;fontSize=11;fontColor=default;endArrow=none;endFill=0;" parent="1" source="fXTxfhUgCltT9-GLnEke-125" target="fXTxfhUgCltT9-GLnEke-121" edge="1">
          <mxGeometry relative="1" as="geometry">
            <mxPoint x="225" y="289.9999999999999" as="sourcePoint" />
          </mxGeometry>
        </mxCell>
        <mxCell id="fXTxfhUgCltT9-GLnEke-78" value="" style="edgeStyle=none;shape=connector;rounded=0;orthogonalLoop=1;jettySize=auto;html=1;labelBackgroundColor=default;strokeColor=default;fontFamily=Helvetica;fontSize=11;fontColor=default;endArrow=none;endFill=0;" parent="1" source="fXTxfhUgCltT9-GLnEke-4" target="fXTxfhUgCltT9-GLnEke-67" edge="1">
          <mxGeometry relative="1" as="geometry" />
        </mxCell>
        <mxCell id="fXTxfhUgCltT9-GLnEke-79" value="" style="edgeStyle=none;shape=connector;rounded=0;orthogonalLoop=1;jettySize=auto;html=1;labelBackgroundColor=default;strokeColor=default;fontFamily=Helvetica;fontSize=11;fontColor=default;endArrow=none;endFill=0;" parent="1" source="fXTxfhUgCltT9-GLnEke-4" target="fXTxfhUgCltT9-GLnEke-68" edge="1">
          <mxGeometry relative="1" as="geometry" />
        </mxCell>
        <mxCell id="fXTxfhUgCltT9-GLnEke-126" style="edgeStyle=none;shape=connector;rounded=0;orthogonalLoop=1;jettySize=auto;html=1;entryX=0;entryY=0.25;entryDx=0;entryDy=0;labelBackgroundColor=default;strokeColor=default;fontFamily=Helvetica;fontSize=11;fontColor=default;endArrow=none;endFill=0;" parent="1" source="fXTxfhUgCltT9-GLnEke-4" target="fXTxfhUgCltT9-GLnEke-1" edge="1">
          <mxGeometry relative="1" as="geometry" />
        </mxCell>
        <mxCell id="fXTxfhUgCltT9-GLnEke-4" value="Diagnosis&amp;nbsp;&lt;br&gt;" style="rounded=0;whiteSpace=wrap;html=1;" parent="1" vertex="1">
          <mxGeometry x="80" y="40" width="120" height="60" as="geometry" />
        </mxCell>
        <mxCell id="fXTxfhUgCltT9-GLnEke-19" style="edgeStyle=none;shape=connector;rounded=0;orthogonalLoop=1;jettySize=auto;html=1;labelBackgroundColor=default;strokeColor=default;fontFamily=Helvetica;fontSize=11;fontColor=default;endArrow=none;endFill=0;" parent="1" source="fXTxfhUgCltT9-GLnEke-7" target="fXTxfhUgCltT9-GLnEke-1" edge="1">
          <mxGeometry relative="1" as="geometry" />
        </mxCell>
        <mxCell id="fXTxfhUgCltT9-GLnEke-7" value="&lt;u&gt;D_ID&lt;/u&gt;" style="ellipse;whiteSpace=wrap;html=1;align=center;" parent="1" vertex="1">
          <mxGeometry x="545" y="70" width="100" height="40" as="geometry" />
        </mxCell>
        <mxCell id="fXTxfhUgCltT9-GLnEke-18" style="edgeStyle=none;shape=connector;rounded=0;orthogonalLoop=1;jettySize=auto;html=1;entryX=0.75;entryY=0;entryDx=0;entryDy=0;labelBackgroundColor=default;strokeColor=default;fontFamily=Helvetica;fontSize=11;fontColor=default;endArrow=none;endFill=0;" parent="1" source="fXTxfhUgCltT9-GLnEke-8" target="fXTxfhUgCltT9-GLnEke-1" edge="1">
          <mxGeometry relative="1" as="geometry" />
        </mxCell>
        <mxCell id="fXTxfhUgCltT9-GLnEke-8" value="Name" style="ellipse;whiteSpace=wrap;html=1;align=center;" parent="1" vertex="1">
          <mxGeometry x="775" y="115" width="100" height="50" as="geometry" />
        </mxCell>
        <mxCell id="fXTxfhUgCltT9-GLnEke-17" style="edgeStyle=none;shape=connector;rounded=0;orthogonalLoop=1;jettySize=auto;html=1;entryX=0;entryY=0.75;entryDx=0;entryDy=0;labelBackgroundColor=default;strokeColor=default;fontFamily=Helvetica;fontSize=11;fontColor=default;endArrow=none;endFill=0;" parent="1" source="fXTxfhUgCltT9-GLnEke-9" target="fXTxfhUgCltT9-GLnEke-1" edge="1">
          <mxGeometry relative="1" as="geometry" />
        </mxCell>
        <mxCell id="fXTxfhUgCltT9-GLnEke-9" value="Age&amp;nbsp;" style="ellipse;whiteSpace=wrap;html=1;align=center;" parent="1" vertex="1">
          <mxGeometry x="480" y="150" width="100" height="40" as="geometry" />
        </mxCell>
        <mxCell id="fXTxfhUgCltT9-GLnEke-10" value="Address&amp;nbsp;&lt;br&gt;" style="ellipse;whiteSpace=wrap;html=1;align=center;" parent="1" vertex="1">
          <mxGeometry x="685" y="50" width="100" height="40" as="geometry" />
        </mxCell>
        <mxCell id="fXTxfhUgCltT9-GLnEke-124" style="edgeStyle=none;shape=connector;rounded=0;orthogonalLoop=1;jettySize=auto;html=1;labelBackgroundColor=default;strokeColor=default;fontFamily=Helvetica;fontSize=11;fontColor=default;endArrow=none;endFill=0;" parent="1" source="fXTxfhUgCltT9-GLnEke-11" target="fXTxfhUgCltT9-GLnEke-121" edge="1">
          <mxGeometry relative="1" as="geometry" />
        </mxCell>
        <mxCell id="fXTxfhUgCltT9-GLnEke-128" style="edgeStyle=none;shape=connector;rounded=0;orthogonalLoop=1;jettySize=auto;html=1;labelBackgroundColor=default;strokeColor=default;fontFamily=Helvetica;fontSize=11;fontColor=default;endArrow=none;endFill=0;" parent="1" source="fXTxfhUgCltT9-GLnEke-11" target="fXTxfhUgCltT9-GLnEke-127" edge="1">
          <mxGeometry relative="1" as="geometry" />
        </mxCell>
        <mxCell id="fXTxfhUgCltT9-GLnEke-11" value="Patients&amp;nbsp;" style="rounded=0;whiteSpace=wrap;html=1;" parent="1" vertex="1">
          <mxGeometry x="620" y="430" width="120" height="60" as="geometry" />
        </mxCell>
        <mxCell id="fXTxfhUgCltT9-GLnEke-14" style="rounded=0;orthogonalLoop=1;jettySize=auto;html=1;entryX=1;entryY=0.5;entryDx=0;entryDy=0;endArrow=none;endFill=0;" parent="1" source="Ky9gOFMZXwRifVlnzkVR-9" target="fXTxfhUgCltT9-GLnEke-11" edge="1">
          <mxGeometry relative="1" as="geometry" />
        </mxCell>
        <mxCell id="fXTxfhUgCltT9-GLnEke-12" value="Admitted Patients&amp;nbsp;" style="shape=ext;margin=3;double=1;whiteSpace=wrap;html=1;align=center;" parent="1" vertex="1">
          <mxGeometry x="850" y="385" width="100" height="40" as="geometry" />
        </mxCell>
        <mxCell id="fXTxfhUgCltT9-GLnEke-16" style="edgeStyle=none;shape=connector;rounded=0;orthogonalLoop=1;jettySize=auto;html=1;entryX=1;entryY=0.75;entryDx=0;entryDy=0;labelBackgroundColor=default;strokeColor=default;fontFamily=Helvetica;fontSize=11;fontColor=default;endArrow=none;endFill=0;" parent="1" source="Ky9gOFMZXwRifVlnzkVR-9" target="fXTxfhUgCltT9-GLnEke-11" edge="1">
          <mxGeometry relative="1" as="geometry">
            <mxPoint x="794.5023766053937" y="485.2057298169557" as="sourcePoint" />
          </mxGeometry>
        </mxCell>
        <mxCell id="Ky9gOFMZXwRifVlnzkVR-13" style="edgeStyle=none;shape=connector;rounded=0;orthogonalLoop=1;jettySize=auto;html=1;entryX=0.287;entryY=0.155;entryDx=0;entryDy=0;entryPerimeter=0;labelBackgroundColor=default;strokeColor=default;fontFamily=Helvetica;fontSize=11;fontColor=default;endArrow=none;endFill=0;" edge="1" parent="1" source="fXTxfhUgCltT9-GLnEke-13" target="Ky9gOFMZXwRifVlnzkVR-9">
          <mxGeometry relative="1" as="geometry" />
        </mxCell>
        <mxCell id="fXTxfhUgCltT9-GLnEke-13" value="Outpatients&amp;nbsp;&lt;br&gt;" style="shape=ext;margin=3;double=1;whiteSpace=wrap;html=1;align=center;" parent="1" vertex="1">
          <mxGeometry x="850" y="450" width="100" height="40" as="geometry" />
        </mxCell>
        <mxCell id="fXTxfhUgCltT9-GLnEke-34" style="edgeStyle=none;shape=connector;rounded=0;orthogonalLoop=1;jettySize=auto;html=1;labelBackgroundColor=default;strokeColor=default;fontFamily=Helvetica;fontSize=11;fontColor=default;endArrow=none;endFill=0;" parent="1" source="fXTxfhUgCltT9-GLnEke-21" target="fXTxfhUgCltT9-GLnEke-11" edge="1">
          <mxGeometry relative="1" as="geometry" />
        </mxCell>
        <mxCell id="fXTxfhUgCltT9-GLnEke-21" value="Age&amp;nbsp;" style="ellipse;whiteSpace=wrap;html=1;align=center;" parent="1" vertex="1">
          <mxGeometry x="625" y="535" width="100" height="40" as="geometry" />
        </mxCell>
        <mxCell id="fXTxfhUgCltT9-GLnEke-24" style="edgeStyle=none;shape=connector;rounded=0;orthogonalLoop=1;jettySize=auto;html=1;entryX=1.008;entryY=0.867;entryDx=0;entryDy=0;entryPerimeter=0;labelBackgroundColor=default;strokeColor=default;fontFamily=Helvetica;fontSize=11;fontColor=default;endArrow=none;endFill=0;" parent="1" source="fXTxfhUgCltT9-GLnEke-23" target="fXTxfhUgCltT9-GLnEke-1" edge="1">
          <mxGeometry relative="1" as="geometry" />
        </mxCell>
        <mxCell id="fXTxfhUgCltT9-GLnEke-23" value="Sex&amp;nbsp;" style="ellipse;whiteSpace=wrap;html=1;align=center;" parent="1" vertex="1">
          <mxGeometry x="765" y="180" width="100" height="50" as="geometry" />
        </mxCell>
        <mxCell id="fXTxfhUgCltT9-GLnEke-39" style="edgeStyle=none;shape=connector;rounded=0;orthogonalLoop=1;jettySize=auto;html=1;labelBackgroundColor=default;strokeColor=default;fontFamily=Helvetica;fontSize=11;fontColor=default;endArrow=none;endFill=0;" parent="1" source="fXTxfhUgCltT9-GLnEke-25" target="fXTxfhUgCltT9-GLnEke-11" edge="1">
          <mxGeometry relative="1" as="geometry" />
        </mxCell>
        <mxCell id="fXTxfhUgCltT9-GLnEke-25" value="&lt;u&gt;P_ID&lt;/u&gt;" style="ellipse;whiteSpace=wrap;html=1;align=center;" parent="1" vertex="1">
          <mxGeometry x="720" y="380" width="100" height="40" as="geometry" />
        </mxCell>
        <mxCell id="fXTxfhUgCltT9-GLnEke-35" style="edgeStyle=none;shape=connector;rounded=0;orthogonalLoop=1;jettySize=auto;html=1;labelBackgroundColor=default;strokeColor=default;fontFamily=Helvetica;fontSize=11;fontColor=default;endArrow=none;endFill=0;" parent="1" source="fXTxfhUgCltT9-GLnEke-27" target="fXTxfhUgCltT9-GLnEke-11" edge="1">
          <mxGeometry relative="1" as="geometry">
            <mxPoint x="630" y="430" as="targetPoint" />
          </mxGeometry>
        </mxCell>
        <mxCell id="fXTxfhUgCltT9-GLnEke-27" value="Sex&amp;nbsp;" style="ellipse;whiteSpace=wrap;html=1;align=center;" parent="1" vertex="1">
          <mxGeometry x="430" y="420" width="100" height="50" as="geometry" />
        </mxCell>
        <mxCell id="fXTxfhUgCltT9-GLnEke-41" style="edgeStyle=none;shape=connector;rounded=0;orthogonalLoop=1;jettySize=auto;html=1;labelBackgroundColor=default;strokeColor=default;fontFamily=Helvetica;fontSize=11;fontColor=default;endArrow=none;endFill=0;" parent="1" source="fXTxfhUgCltT9-GLnEke-28" edge="1">
          <mxGeometry relative="1" as="geometry">
            <mxPoint x="730" y="480" as="targetPoint" />
          </mxGeometry>
        </mxCell>
        <mxCell id="fXTxfhUgCltT9-GLnEke-28" value="Name" style="ellipse;whiteSpace=wrap;html=1;align=center;" parent="1" vertex="1">
          <mxGeometry x="830" y="510" width="100" height="50" as="geometry" />
        </mxCell>
        <mxCell id="fXTxfhUgCltT9-GLnEke-38" style="edgeStyle=none;shape=connector;rounded=0;orthogonalLoop=1;jettySize=auto;html=1;labelBackgroundColor=default;strokeColor=default;fontFamily=Helvetica;fontSize=11;fontColor=default;endArrow=none;endFill=0;" parent="1" source="fXTxfhUgCltT9-GLnEke-29" target="fXTxfhUgCltT9-GLnEke-11" edge="1">
          <mxGeometry relative="1" as="geometry" />
        </mxCell>
        <mxCell id="fXTxfhUgCltT9-GLnEke-29" value="Address&amp;nbsp;&lt;br&gt;" style="ellipse;whiteSpace=wrap;html=1;align=center;" parent="1" vertex="1">
          <mxGeometry x="720" y="525" width="100" height="50" as="geometry" />
        </mxCell>
        <mxCell id="fXTxfhUgCltT9-GLnEke-32" style="edgeStyle=none;shape=connector;rounded=0;orthogonalLoop=1;jettySize=auto;html=1;labelBackgroundColor=default;strokeColor=default;fontFamily=Helvetica;fontSize=11;fontColor=default;endArrow=none;endFill=0;" parent="1" source="fXTxfhUgCltT9-GLnEke-31" target="fXTxfhUgCltT9-GLnEke-1" edge="1">
          <mxGeometry relative="1" as="geometry" />
        </mxCell>
        <mxCell id="fXTxfhUgCltT9-GLnEke-31" value="Tel" style="ellipse;whiteSpace=wrap;html=1;align=center;" parent="1" vertex="1">
          <mxGeometry x="605" y="10" width="100" height="40" as="geometry" />
        </mxCell>
        <mxCell id="fXTxfhUgCltT9-GLnEke-36" style="edgeStyle=none;shape=connector;rounded=0;orthogonalLoop=1;jettySize=auto;html=1;entryX=0.358;entryY=0.05;entryDx=0;entryDy=0;entryPerimeter=0;labelBackgroundColor=default;strokeColor=default;fontFamily=Helvetica;fontSize=11;fontColor=default;endArrow=none;endFill=0;" parent="1" source="fXTxfhUgCltT9-GLnEke-33" target="fXTxfhUgCltT9-GLnEke-11" edge="1">
          <mxGeometry relative="1" as="geometry" />
        </mxCell>
        <mxCell id="fXTxfhUgCltT9-GLnEke-33" value="Tel" style="ellipse;whiteSpace=wrap;html=1;align=center;" parent="1" vertex="1">
          <mxGeometry x="500" y="380" width="100" height="40" as="geometry" />
        </mxCell>
        <mxCell id="fXTxfhUgCltT9-GLnEke-44" value="M" style="edgeStyle=none;shape=connector;rounded=0;orthogonalLoop=1;jettySize=auto;html=1;labelBackgroundColor=default;strokeColor=default;fontFamily=Helvetica;fontSize=11;fontColor=default;endArrow=none;endFill=0;" parent="1" source="fXTxfhUgCltT9-GLnEke-42" target="fXTxfhUgCltT9-GLnEke-11" edge="1">
          <mxGeometry relative="1" as="geometry">
            <mxPoint x="706.4285714285716" y="380.71428571428567" as="sourcePoint" />
          </mxGeometry>
        </mxCell>
        <mxCell id="fXTxfhUgCltT9-GLnEke-42" value="Relationship" style="shape=rhombus;perimeter=rhombusPerimeter;whiteSpace=wrap;html=1;align=center;fontFamily=Helvetica;fontSize=11;fontColor=default;" parent="1" vertex="1">
          <mxGeometry x="625" y="325" width="120" height="60" as="geometry" />
        </mxCell>
        <mxCell id="fXTxfhUgCltT9-GLnEke-59" style="edgeStyle=none;shape=connector;rounded=0;orthogonalLoop=1;jettySize=auto;html=1;labelBackgroundColor=default;strokeColor=default;fontFamily=Helvetica;fontSize=11;fontColor=default;endArrow=none;endFill=0;" parent="1" source="fXTxfhUgCltT9-GLnEke-46" target="fXTxfhUgCltT9-GLnEke-2" edge="1">
          <mxGeometry relative="1" as="geometry" />
        </mxCell>
        <mxCell id="fXTxfhUgCltT9-GLnEke-46" value="Appointment_No&lt;br&gt;&amp;nbsp;" style="ellipse;whiteSpace=wrap;html=1;align=center;" parent="1" vertex="1">
          <mxGeometry x="30" y="765" width="100" height="50" as="geometry" />
        </mxCell>
        <mxCell id="fXTxfhUgCltT9-GLnEke-57" style="edgeStyle=none;shape=connector;rounded=0;orthogonalLoop=1;jettySize=auto;html=1;entryX=0;entryY=0.5;entryDx=0;entryDy=0;labelBackgroundColor=default;strokeColor=default;fontFamily=Helvetica;fontSize=11;fontColor=default;endArrow=none;endFill=0;" parent="1" source="fXTxfhUgCltT9-GLnEke-47" target="fXTxfhUgCltT9-GLnEke-2" edge="1">
          <mxGeometry relative="1" as="geometry" />
        </mxCell>
        <mxCell id="fXTxfhUgCltT9-GLnEke-47" value="P_ID" style="ellipse;whiteSpace=wrap;html=1;align=center;" parent="1" vertex="1">
          <mxGeometry x="-20" y="675" width="100" height="50" as="geometry" />
        </mxCell>
        <mxCell id="fXTxfhUgCltT9-GLnEke-58" style="edgeStyle=none;shape=connector;rounded=0;orthogonalLoop=1;jettySize=auto;html=1;labelBackgroundColor=default;strokeColor=default;fontFamily=Helvetica;fontSize=11;fontColor=default;endArrow=none;endFill=0;" parent="1" source="fXTxfhUgCltT9-GLnEke-48" target="fXTxfhUgCltT9-GLnEke-2" edge="1">
          <mxGeometry relative="1" as="geometry" />
        </mxCell>
        <mxCell id="fXTxfhUgCltT9-GLnEke-48" value="Patient Name" style="ellipse;whiteSpace=wrap;html=1;align=center;" parent="1" vertex="1">
          <mxGeometry x="200" y="765" width="100" height="50" as="geometry" />
        </mxCell>
        <mxCell id="fXTxfhUgCltT9-GLnEke-54" style="edgeStyle=none;shape=connector;rounded=0;orthogonalLoop=1;jettySize=auto;html=1;entryX=1;entryY=0.25;entryDx=0;entryDy=0;labelBackgroundColor=default;strokeColor=default;fontFamily=Helvetica;fontSize=11;fontColor=default;endArrow=none;endFill=0;" parent="1" source="fXTxfhUgCltT9-GLnEke-49" target="fXTxfhUgCltT9-GLnEke-2" edge="1">
          <mxGeometry relative="1" as="geometry" />
        </mxCell>
        <mxCell id="fXTxfhUgCltT9-GLnEke-49" value="Doctor" style="ellipse;whiteSpace=wrap;html=1;align=center;" parent="1" vertex="1">
          <mxGeometry x="330" y="635" width="100" height="50" as="geometry" />
        </mxCell>
        <mxCell id="fXTxfhUgCltT9-GLnEke-53" style="edgeStyle=none;shape=connector;rounded=0;orthogonalLoop=1;jettySize=auto;html=1;entryX=0.5;entryY=0;entryDx=0;entryDy=0;labelBackgroundColor=default;strokeColor=default;fontFamily=Helvetica;fontSize=11;fontColor=default;endArrow=none;endFill=0;" parent="1" source="fXTxfhUgCltT9-GLnEke-50" target="fXTxfhUgCltT9-GLnEke-2" edge="1">
          <mxGeometry relative="1" as="geometry" />
        </mxCell>
        <mxCell id="fXTxfhUgCltT9-GLnEke-50" value="Location&amp;nbsp;" style="ellipse;whiteSpace=wrap;html=1;align=center;" parent="1" vertex="1">
          <mxGeometry x="50" y="535" width="100" height="50" as="geometry" />
        </mxCell>
        <mxCell id="fXTxfhUgCltT9-GLnEke-60" style="edgeStyle=none;shape=connector;rounded=0;orthogonalLoop=1;jettySize=auto;html=1;entryX=1;entryY=0.75;entryDx=0;entryDy=0;labelBackgroundColor=default;strokeColor=default;fontFamily=Helvetica;fontSize=11;fontColor=default;endArrow=none;endFill=0;" parent="1" source="fXTxfhUgCltT9-GLnEke-51" target="fXTxfhUgCltT9-GLnEke-2" edge="1">
          <mxGeometry relative="1" as="geometry" />
        </mxCell>
        <mxCell id="fXTxfhUgCltT9-GLnEke-51" value="time/date&lt;br&gt;" style="ellipse;whiteSpace=wrap;html=1;align=center;" parent="1" vertex="1">
          <mxGeometry x="250" y="685" width="100" height="50" as="geometry" />
        </mxCell>
        <mxCell id="fXTxfhUgCltT9-GLnEke-56" style="edgeStyle=none;shape=connector;rounded=0;orthogonalLoop=1;jettySize=auto;html=1;labelBackgroundColor=default;strokeColor=default;fontFamily=Helvetica;fontSize=11;fontColor=default;endArrow=none;endFill=0;" parent="1" target="fXTxfhUgCltT9-GLnEke-2" edge="1">
          <mxGeometry relative="1" as="geometry">
            <mxPoint x="78.91519152906449" y="630.395536882108" as="sourcePoint" />
          </mxGeometry>
        </mxCell>
        <mxCell id="fXTxfhUgCltT9-GLnEke-64" style="edgeStyle=none;shape=connector;rounded=0;orthogonalLoop=1;jettySize=auto;html=1;entryX=0.417;entryY=0.05;entryDx=0;entryDy=0;entryPerimeter=0;labelBackgroundColor=default;strokeColor=default;fontFamily=Helvetica;fontSize=11;fontColor=default;endArrow=none;endFill=0;" parent="1" source="fXTxfhUgCltT9-GLnEke-61" edge="1">
          <mxGeometry relative="1" as="geometry">
            <mxPoint x="230.03999999999996" y="232.9999999999999" as="targetPoint" />
          </mxGeometry>
        </mxCell>
        <mxCell id="fXTxfhUgCltT9-GLnEke-61" value="Mode of payment" style="ellipse;whiteSpace=wrap;html=1;align=center;" parent="1" vertex="1">
          <mxGeometry x="50" y="210" width="100" height="50" as="geometry" />
        </mxCell>
        <mxCell id="fXTxfhUgCltT9-GLnEke-72" style="edgeStyle=none;shape=connector;rounded=0;orthogonalLoop=1;jettySize=auto;html=1;entryX=0;entryY=0.5;entryDx=0;entryDy=0;labelBackgroundColor=default;strokeColor=default;fontFamily=Helvetica;fontSize=11;fontColor=default;endArrow=none;endFill=0;" parent="1" source="fXTxfhUgCltT9-GLnEke-62" target="fXTxfhUgCltT9-GLnEke-61" edge="1">
          <mxGeometry relative="1" as="geometry" />
        </mxCell>
        <mxCell id="fXTxfhUgCltT9-GLnEke-62" value="Credit-Card" style="ellipse;whiteSpace=wrap;html=1;align=center;" parent="1" vertex="1">
          <mxGeometry x="-60" y="260" width="100" height="50" as="geometry" />
        </mxCell>
        <mxCell id="fXTxfhUgCltT9-GLnEke-71" style="edgeStyle=none;shape=connector;rounded=0;orthogonalLoop=1;jettySize=auto;html=1;entryX=0.02;entryY=0.66;entryDx=0;entryDy=0;entryPerimeter=0;labelBackgroundColor=default;strokeColor=default;fontFamily=Helvetica;fontSize=11;fontColor=default;endArrow=none;endFill=0;" parent="1" source="fXTxfhUgCltT9-GLnEke-63" target="fXTxfhUgCltT9-GLnEke-61" edge="1">
          <mxGeometry relative="1" as="geometry" />
        </mxCell>
        <mxCell id="fXTxfhUgCltT9-GLnEke-63" value="Cash" style="ellipse;whiteSpace=wrap;html=1;align=center;" parent="1" vertex="1">
          <mxGeometry x="-60" y="170" width="100" height="50" as="geometry" />
        </mxCell>
        <mxCell id="fXTxfhUgCltT9-GLnEke-67" value="&lt;u&gt;D_ID&lt;/u&gt;" style="ellipse;whiteSpace=wrap;html=1;align=center;" parent="1" vertex="1">
          <mxGeometry x="230" y="115" width="100" height="50" as="geometry" />
        </mxCell>
        <mxCell id="fXTxfhUgCltT9-GLnEke-68" value="P_Details" style="ellipse;whiteSpace=wrap;html=1;align=center;" parent="1" vertex="1">
          <mxGeometry x="120" y="140" width="100" height="50" as="geometry" />
        </mxCell>
        <mxCell id="fXTxfhUgCltT9-GLnEke-77" value="" style="edgeStyle=none;shape=connector;rounded=0;orthogonalLoop=1;jettySize=auto;html=1;labelBackgroundColor=default;strokeColor=default;fontFamily=Helvetica;fontSize=11;fontColor=default;endArrow=none;endFill=0;" parent="1" source="fXTxfhUgCltT9-GLnEke-69" target="fXTxfhUgCltT9-GLnEke-4" edge="1">
          <mxGeometry relative="1" as="geometry" />
        </mxCell>
        <mxCell id="fXTxfhUgCltT9-GLnEke-69" value="P_Details" style="ellipse;whiteSpace=wrap;html=1;align=center;" parent="1" vertex="1">
          <mxGeometry x="-70" y="100" width="100" height="50" as="geometry" />
        </mxCell>
        <mxCell id="fXTxfhUgCltT9-GLnEke-74" value="" style="edgeStyle=none;shape=connector;rounded=0;orthogonalLoop=1;jettySize=auto;html=1;labelBackgroundColor=default;strokeColor=default;fontFamily=Helvetica;fontSize=11;fontColor=default;endArrow=none;endFill=0;" parent="1" source="fXTxfhUgCltT9-GLnEke-73" target="fXTxfhUgCltT9-GLnEke-4" edge="1">
          <mxGeometry relative="1" as="geometry" />
        </mxCell>
        <mxCell id="fXTxfhUgCltT9-GLnEke-73" value="ID of last&lt;br&gt;Appointment&amp;nbsp;" style="ellipse;whiteSpace=wrap;html=1;align=center;" parent="1" vertex="1">
          <mxGeometry x="-50" y="40" width="100" height="50" as="geometry" />
        </mxCell>
        <mxCell id="fXTxfhUgCltT9-GLnEke-82" style="edgeStyle=none;shape=connector;rounded=0;orthogonalLoop=1;jettySize=auto;html=1;labelBackgroundColor=default;strokeColor=default;fontFamily=Helvetica;fontSize=11;fontColor=default;endArrow=none;endFill=0;" parent="1" source="fXTxfhUgCltT9-GLnEke-80" target="fXTxfhUgCltT9-GLnEke-4" edge="1">
          <mxGeometry relative="1" as="geometry" />
        </mxCell>
        <mxCell id="fXTxfhUgCltT9-GLnEke-80" value="Diagnosis Details&amp;nbsp;" style="ellipse;whiteSpace=wrap;html=1;align=center;" parent="1" vertex="1">
          <mxGeometry x="230" y="10" width="100" height="50" as="geometry" />
        </mxCell>
        <mxCell id="fXTxfhUgCltT9-GLnEke-81" value="" style="endArrow=none;html=1;rounded=0;labelBackgroundColor=default;strokeColor=default;fontFamily=Helvetica;fontSize=11;fontColor=default;shape=connector;entryX=0.573;entryY=0.973;entryDx=0;entryDy=0;entryPerimeter=0;exitX=0.587;exitY=0.04;exitDx=0;exitDy=0;exitPerimeter=0;" parent="1" source="fXTxfhUgCltT9-GLnEke-11" target="fXTxfhUgCltT9-GLnEke-42" edge="1">
          <mxGeometry width="50" height="50" relative="1" as="geometry">
            <mxPoint x="690" y="430" as="sourcePoint" />
            <mxPoint x="725.8000000000002" y="380.79999999999995" as="targetPoint" />
          </mxGeometry>
        </mxCell>
        <mxCell id="fXTxfhUgCltT9-GLnEke-87" value="Ward&amp;nbsp;" style="rounded=0;whiteSpace=wrap;html=1;" parent="1" vertex="1">
          <mxGeometry x="651.88" y="850.04" width="120" height="60" as="geometry" />
        </mxCell>
        <mxCell id="fXTxfhUgCltT9-GLnEke-102" style="edgeStyle=none;shape=connector;rounded=0;orthogonalLoop=1;jettySize=auto;html=1;labelBackgroundColor=default;strokeColor=default;fontFamily=Helvetica;fontSize=11;fontColor=default;endArrow=none;endFill=0;" parent="1" source="fXTxfhUgCltT9-GLnEke-88" target="fXTxfhUgCltT9-GLnEke-87" edge="1">
          <mxGeometry relative="1" as="geometry" />
        </mxCell>
        <mxCell id="fXTxfhUgCltT9-GLnEke-88" value="Ward_No&lt;br&gt;" style="ellipse;whiteSpace=wrap;html=1;align=center;" parent="1" vertex="1">
          <mxGeometry x="521.88" y="816.8" width="100" height="50" as="geometry" />
        </mxCell>
        <mxCell id="fXTxfhUgCltT9-GLnEke-101" style="edgeStyle=none;shape=connector;rounded=0;orthogonalLoop=1;jettySize=auto;html=1;labelBackgroundColor=default;strokeColor=default;fontFamily=Helvetica;fontSize=11;fontColor=default;endArrow=none;endFill=0;" parent="1" source="fXTxfhUgCltT9-GLnEke-89" target="fXTxfhUgCltT9-GLnEke-87" edge="1">
          <mxGeometry relative="1" as="geometry" />
        </mxCell>
        <mxCell id="fXTxfhUgCltT9-GLnEke-89" value="Ward Name" style="ellipse;whiteSpace=wrap;html=1;align=center;" parent="1" vertex="1">
          <mxGeometry x="533.35" y="910.04" width="100" height="50" as="geometry" />
        </mxCell>
        <mxCell id="fXTxfhUgCltT9-GLnEke-100" style="edgeStyle=none;shape=connector;rounded=0;orthogonalLoop=1;jettySize=auto;html=1;labelBackgroundColor=default;strokeColor=default;fontFamily=Helvetica;fontSize=11;fontColor=default;endArrow=none;endFill=0;" parent="1" source="fXTxfhUgCltT9-GLnEke-90" target="fXTxfhUgCltT9-GLnEke-87" edge="1">
          <mxGeometry relative="1" as="geometry" />
        </mxCell>
        <mxCell id="fXTxfhUgCltT9-GLnEke-90" value="Floor" style="ellipse;whiteSpace=wrap;html=1;align=center;" parent="1" vertex="1">
          <mxGeometry x="658.35" y="940.04" width="100" height="50" as="geometry" />
        </mxCell>
        <mxCell id="fXTxfhUgCltT9-GLnEke-95" value="1" style="edgeStyle=none;shape=connector;rounded=0;orthogonalLoop=1;jettySize=auto;html=1;entryX=0.5;entryY=1;entryDx=0;entryDy=0;labelBackgroundColor=default;strokeColor=default;fontFamily=Helvetica;fontSize=11;fontColor=default;endArrow=none;endFill=0;" parent="1" source="fXTxfhUgCltT9-GLnEke-92" target="fXTxfhUgCltT9-GLnEke-94" edge="1">
          <mxGeometry relative="1" as="geometry" />
        </mxCell>
        <mxCell id="fXTxfhUgCltT9-GLnEke-92" value="Nurse" style="rounded=0;whiteSpace=wrap;html=1;" parent="1" vertex="1">
          <mxGeometry x="990" y="665" width="120" height="60" as="geometry" />
        </mxCell>
        <mxCell id="fXTxfhUgCltT9-GLnEke-99" style="edgeStyle=none;shape=connector;rounded=0;orthogonalLoop=1;jettySize=auto;html=1;labelBackgroundColor=default;strokeColor=default;fontFamily=Helvetica;fontSize=11;fontColor=default;endArrow=none;endFill=0;exitX=0.037;exitY=0.002;exitDx=0;exitDy=0;exitPerimeter=0;" parent="1" source="Ky9gOFMZXwRifVlnzkVR-2" target="fXTxfhUgCltT9-GLnEke-92" edge="1">
          <mxGeometry relative="1" as="geometry">
            <mxPoint x="754.8815164211469" y="718.2799477096155" as="sourcePoint" />
          </mxGeometry>
        </mxCell>
        <mxCell id="fXTxfhUgCltT9-GLnEke-104" value="1&lt;br&gt;" style="edgeStyle=none;shape=connector;rounded=0;orthogonalLoop=1;jettySize=auto;html=1;labelBackgroundColor=default;strokeColor=default;fontFamily=Helvetica;fontSize=11;fontColor=default;endArrow=none;endFill=0;" parent="1" source="Ky9gOFMZXwRifVlnzkVR-1" target="fXTxfhUgCltT9-GLnEke-103" edge="1">
          <mxGeometry relative="1" as="geometry">
            <mxPoint x="761.0247360684358" y="725.0042033054069" as="sourcePoint" />
          </mxGeometry>
        </mxCell>
        <mxCell id="Ky9gOFMZXwRifVlnzkVR-6" style="edgeStyle=none;shape=connector;rounded=0;orthogonalLoop=1;jettySize=auto;html=1;labelBackgroundColor=default;strokeColor=default;fontFamily=Helvetica;fontSize=11;fontColor=default;endArrow=none;endFill=0;" edge="1" parent="1" source="fXTxfhUgCltT9-GLnEke-94" target="fXTxfhUgCltT9-GLnEke-12">
          <mxGeometry relative="1" as="geometry" />
        </mxCell>
        <mxCell id="fXTxfhUgCltT9-GLnEke-94" value="Relationship" style="shape=rhombus;perimeter=rhombusPerimeter;whiteSpace=wrap;html=1;align=center;fontFamily=Helvetica;fontSize=11;fontColor=default;" parent="1" vertex="1">
          <mxGeometry x="990" y="375" width="120" height="60" as="geometry" />
        </mxCell>
        <mxCell id="fXTxfhUgCltT9-GLnEke-105" style="edgeStyle=none;shape=connector;rounded=0;orthogonalLoop=1;jettySize=auto;html=1;entryX=1;entryY=0.5;entryDx=0;entryDy=0;labelBackgroundColor=default;strokeColor=default;fontFamily=Helvetica;fontSize=11;fontColor=default;endArrow=none;endFill=0;" parent="1" source="fXTxfhUgCltT9-GLnEke-103" target="fXTxfhUgCltT9-GLnEke-87" edge="1">
          <mxGeometry relative="1" as="geometry">
            <mxPoint x="773.3505882352941" y="810.035294117647" as="sourcePoint" />
          </mxGeometry>
        </mxCell>
        <mxCell id="fXTxfhUgCltT9-GLnEke-106" value="1&lt;br&gt;" style="edgeLabel;html=1;align=center;verticalAlign=middle;resizable=0;points=[];fontSize=11;fontFamily=Helvetica;fontColor=default;" parent="fXTxfhUgCltT9-GLnEke-105" vertex="1" connectable="0">
          <mxGeometry x="-0.5541" relative="1" as="geometry">
            <mxPoint as="offset" />
          </mxGeometry>
        </mxCell>
        <mxCell id="fXTxfhUgCltT9-GLnEke-103" value="Relationship" style="shape=rhombus;perimeter=rhombusPerimeter;whiteSpace=wrap;html=1;align=center;fontFamily=Helvetica;fontSize=11;fontColor=default;" parent="1" vertex="1">
          <mxGeometry x="708.35" y="756.8" width="120" height="60" as="geometry" />
        </mxCell>
        <mxCell id="fXTxfhUgCltT9-GLnEke-109" style="edgeStyle=none;shape=connector;rounded=0;orthogonalLoop=1;jettySize=auto;html=1;entryX=0;entryY=0.5;entryDx=0;entryDy=0;labelBackgroundColor=default;strokeColor=default;fontFamily=Helvetica;fontSize=11;fontColor=default;endArrow=none;endFill=0;" parent="1" source="fXTxfhUgCltT9-GLnEke-107" target="fXTxfhUgCltT9-GLnEke-11" edge="1">
          <mxGeometry relative="1" as="geometry" />
        </mxCell>
        <mxCell id="fXTxfhUgCltT9-GLnEke-107" value="Relationship" style="shape=rhombus;perimeter=rhombusPerimeter;whiteSpace=wrap;html=1;align=center;fontFamily=Helvetica;fontSize=11;fontColor=default;" parent="1" vertex="1">
          <mxGeometry x="330" y="515" width="120" height="60" as="geometry" />
        </mxCell>
        <mxCell id="fXTxfhUgCltT9-GLnEke-113" style="edgeStyle=none;shape=connector;rounded=0;orthogonalLoop=1;jettySize=auto;html=1;labelBackgroundColor=default;strokeColor=default;fontFamily=Helvetica;fontSize=11;fontColor=default;endArrow=none;endFill=0;" parent="1" source="fXTxfhUgCltT9-GLnEke-111" edge="1">
          <mxGeometry relative="1" as="geometry">
            <mxPoint x="220" y="660" as="targetPoint" />
          </mxGeometry>
        </mxCell>
        <mxCell id="fXTxfhUgCltT9-GLnEke-111" value="Relationship" style="shape=rhombus;perimeter=rhombusPerimeter;whiteSpace=wrap;html=1;align=center;fontFamily=Helvetica;fontSize=11;fontColor=default;" parent="1" vertex="1">
          <mxGeometry x="240" y="410" width="120" height="60" as="geometry" />
        </mxCell>
        <mxCell id="fXTxfhUgCltT9-GLnEke-115" value="Tel" style="ellipse;shape=doubleEllipse;margin=3;whiteSpace=wrap;html=1;align=center;fontFamily=Helvetica;fontSize=11;fontColor=default;" parent="1" vertex="1">
          <mxGeometry y="610" width="100" height="40" as="geometry" />
        </mxCell>
        <mxCell id="fXTxfhUgCltT9-GLnEke-117" value="Tel" style="ellipse;shape=doubleEllipse;margin=3;whiteSpace=wrap;html=1;align=center;fontFamily=Helvetica;fontSize=11;fontColor=default;" parent="1" vertex="1">
          <mxGeometry x="500" y="380" width="100" height="40" as="geometry" />
        </mxCell>
        <mxCell id="fXTxfhUgCltT9-GLnEke-118" value="Tel" style="ellipse;shape=doubleEllipse;margin=3;whiteSpace=wrap;html=1;align=center;fontFamily=Helvetica;fontSize=11;fontColor=default;" parent="1" vertex="1">
          <mxGeometry x="605" y="10" width="100" height="40" as="geometry" />
        </mxCell>
        <mxCell id="fXTxfhUgCltT9-GLnEke-121" value="Relationship" style="shape=rhombus;perimeter=rhombusPerimeter;whiteSpace=wrap;html=1;align=center;fontFamily=Helvetica;fontSize=11;fontColor=default;" parent="1" vertex="1">
          <mxGeometry x="150" y="320" width="120" height="60" as="geometry" />
        </mxCell>
        <mxCell id="fXTxfhUgCltT9-GLnEke-125" value="Payment" style="shape=ext;margin=3;double=1;whiteSpace=wrap;html=1;align=center;fontFamily=Helvetica;fontSize=11;fontColor=default;" parent="1" vertex="1">
          <mxGeometry x="220" y="215" width="100" height="40" as="geometry" />
        </mxCell>
        <mxCell id="fXTxfhUgCltT9-GLnEke-127" value="Relationship" style="shape=rhombus;perimeter=rhombusPerimeter;whiteSpace=wrap;html=1;align=center;fontFamily=Helvetica;fontSize=11;fontColor=default;" parent="1" vertex="1">
          <mxGeometry x="360" y="80" width="120" height="60" as="geometry" />
        </mxCell>
        <mxCell id="Ky9gOFMZXwRifVlnzkVR-5" value="" style="edgeStyle=none;shape=connector;rounded=0;orthogonalLoop=1;jettySize=auto;html=1;labelBackgroundColor=default;strokeColor=default;fontFamily=Helvetica;fontSize=11;fontColor=default;endArrow=none;endFill=0;" edge="1" parent="1" source="Ky9gOFMZXwRifVlnzkVR-1" target="Ky9gOFMZXwRifVlnzkVR-2">
          <mxGeometry relative="1" as="geometry" />
        </mxCell>
        <mxCell id="Ky9gOFMZXwRifVlnzkVR-1" value="Head Nurse" style="whiteSpace=wrap;html=1;align=center;fontFamily=Helvetica;fontSize=11;fontColor=default;" vertex="1" parent="1">
          <mxGeometry x="718.35" y="665" width="100" height="40" as="geometry" />
        </mxCell>
        <mxCell id="Ky9gOFMZXwRifVlnzkVR-2" value="" style="triangle;whiteSpace=wrap;html=1;fontFamily=Helvetica;fontSize=11;fontColor=default;rotation=123;" vertex="1" parent="1">
          <mxGeometry x="915.63" y="665" width="32.5" height="45" as="geometry" />
        </mxCell>
        <mxCell id="Ky9gOFMZXwRifVlnzkVR-10" value="" style="rounded=0;orthogonalLoop=1;jettySize=auto;html=1;entryX=1;entryY=0.5;entryDx=0;entryDy=0;endArrow=none;endFill=0;" edge="1" parent="1" source="fXTxfhUgCltT9-GLnEke-12" target="Ky9gOFMZXwRifVlnzkVR-9">
          <mxGeometry relative="1" as="geometry">
            <mxPoint x="850" y="422" as="sourcePoint" />
            <mxPoint x="740" y="460" as="targetPoint" />
          </mxGeometry>
        </mxCell>
        <mxCell id="Ky9gOFMZXwRifVlnzkVR-9" value="" style="triangle;whiteSpace=wrap;html=1;fontFamily=Helvetica;fontSize=11;fontColor=default;rotation=123;" vertex="1" parent="1">
          <mxGeometry x="795.85" y="435" width="32.5" height="45" as="geometry" />
        </mxCell>
      </root>
    </mxGraphModel>
  </diagram>
</mxfile>
